<svg width="131" height="40" viewBox="0 0 131 40" fill="none" xmlns="http://www.w3.org/2000/svg">
<g clip-path="url(#clip0_1946_5419)">
<path d="M56.0449 30.4444C50.1877 30.4444 46 26.25 46 20.7222C46 15.1944 50.216 11 55.96 11C58.7895 11 60.9966 12.0833 62.8358 13.6667L61.6757 16.0278C60.2609 14.6389 58.45 13.5 55.8468 13.5C51.6025 13.5 48.5466 16.4167 48.5466 20.7222C48.5466 25.0278 51.5742 27.9444 55.8751 27.9444C59.5818 27.9444 62.2133 25.75 62.6377 22.4167H55.0828V19.9167H65.5239V20.0278C65.5239 26.1389 62.0152 30.4444 56.0449 30.4444Z" fill="#12100C"/>
<path d="M68.1797 16.5547H70.6131V30.4435H68.1797V16.5547Z" fill="#12100C"/>
<path d="M82.1395 30.2507V28.1396C81.3755 28.2785 80.753 28.3618 79.8475 28.3618C78.6591 28.3618 78.2347 27.7507 78.2347 26.6951V18.6396H82.1112V16.5563H78.2347V12.834H75.8013V16.5563H73V18.6396H75.8013V26.5563C75.8013 29.5007 77.1312 30.584 79.7061 30.584C80.6115 30.584 81.4038 30.4451 82.1395 30.2507Z" fill="#12100C"/>
<path fill-rule="evenodd" clip-rule="evenodd" d="M87.0975 36.0005H84.6641V16.5561H87.0975V18.5561C88.2576 17.0283 89.9837 16.2227 92.0775 16.2227C96.0955 16.2227 98.8967 19.2227 98.8967 23.5005C98.8967 27.7783 96.0955 30.7783 92.0775 30.7783C90.0686 30.7783 88.4274 30.0005 87.0975 28.4172V36.0005ZM86.9278 23.5005C86.9278 26.5838 88.7953 28.5561 91.6531 28.5561C94.5109 28.5561 96.3784 26.5561 96.3784 23.5005C96.3784 20.4449 94.5109 18.4449 91.6531 18.4449C88.7953 18.4449 86.9278 20.4172 86.9278 23.5005Z" fill="#12100C"/>
<path fill-rule="evenodd" clip-rule="evenodd" d="M100.414 23.5005C100.414 27.6672 103.583 30.7783 107.827 30.7783C112.072 30.7783 115.241 27.6672 115.241 23.5005C115.241 19.3338 112.072 16.2227 107.827 16.2227C103.583 16.2227 100.414 19.3338 100.414 23.5005ZM112.723 23.5005C112.723 26.3894 110.77 28.4727 107.827 28.4727C104.885 28.4727 102.932 26.3894 102.932 23.5005C102.932 20.6116 104.885 18.5283 107.827 18.5283C110.77 18.5283 112.723 20.6116 112.723 23.5005Z" fill="#12100C"/>
<path fill-rule="evenodd" clip-rule="evenodd" d="M128.566 11H130.999V30.4444H128.566V28.4444C127.405 29.9722 125.679 30.7778 123.586 30.7778C119.568 30.7778 116.766 27.7778 116.766 23.5C116.766 19.2222 119.568 16.2222 123.586 16.2222C125.595 16.2222 127.236 17 128.566 18.5833V11ZM128.735 23.5C128.735 20.4167 126.868 18.4444 124.01 18.4444C121.152 18.4444 119.285 20.4444 119.285 23.5C119.285 26.5556 121.152 28.5556 124.01 28.5556C126.868 28.5556 128.735 26.5833 128.735 23.5Z" fill="#12100C"/>
<path d="M69.4016 14.7297C70.3633 14.7297 71.1429 13.9674 71.1429 13.027C71.1429 12.0865 70.3633 11.3242 69.4016 11.3242C68.4398 11.3242 67.6602 12.0865 67.6602 13.027C67.6602 13.9674 68.4398 14.7297 69.4016 14.7297Z" fill="#12100C"/>
<path fill-rule="evenodd" clip-rule="evenodd" d="M21.388 1.99199C22.4572 3.8871 21.8071 6.30126 19.936 7.38418L8.30155 14.1176C7.99402 14.2956 7.8042 14.6271 7.8042 14.9861V25.5563C7.8042 25.9153 7.99402 26.2467 8.30155 26.4247L17.511 31.7548C17.8141 31.9301 18.1859 31.9301 18.489 31.7548L27.6985 26.4247C28.006 26.2467 28.1958 25.9153 28.1958 25.5563V18.9825L19.9175 23.7132C18.0406 24.7858 15.6605 24.1142 14.6015 22.2133C13.5425 20.3123 14.2056 17.9017 16.0825 16.8292L27.9277 10.0602C31.5358 7.99827 36 10.6386 36 14.8346V26.3588C36 29.0581 34.572 31.5504 32.258 32.8896L21.6846 39.009C19.4014 40.3303 16.5986 40.3303 14.3154 39.009L3.74196 32.8896C1.42803 31.5504 0 29.0581 0 26.3588V14.1835C0 11.4843 1.42803 8.99201 3.74196 7.65282L16.064 0.521394C17.9351 -0.561524 20.3188 0.0968852 21.388 1.99199Z" fill="url(#paint0_linear_1946_5419)"/>
</g>
<defs>
<linearGradient id="paint0_linear_1946_5419" x1="27.0957" y1="6.04878" x2="8.28086" y2="35.2541" gradientUnits="userSpaceOnUse">
<stop stop-color="#FFB45B"/>
<stop offset="1" stop-color="#FF8A00"/>
</linearGradient>
<clipPath id="clip0_1946_5419">
<rect width="131" height="40" fill="white"/>
</clipPath>
</defs>
</svg>
